<?xml version="1.0" standalone="no"?>
<!DOCTYPE svg PUBLIC "-//W3C//DTD SVG 20010904//EN"
 "http://www.w3.org/TR/2001/REC-SVG-20010904/DTD/svg10.dtd">
<svg version="1.0" xmlns="http://www.w3.org/2000/svg"
 width="192.000000pt" height="192.000000pt" viewBox="0 0 192.000000 192.000000"
 preserveAspectRatio="xMidYMid meet">
<metadata>
Created by potrace 1.14, written by Peter Selinger 2001-2017
</metadata>
<g transform="translate(0.000000,192.000000) scale(0.100000,-0.100000)"
fill="#000000" stroke="none">
<path d="M947 1873 c-14 -13 -7 -33 11 -33 24 0 32 8 25 26 -5 15 -25 19 -36
7z"/>
<path d="M753 1762 c-10 -6 -10 -12 2 -28 13 -16 16 -17 25 -4 17 26 -2 48
-27 32z"/>
<path d="M1141 1756 c-9 -10 -8 -16 4 -26 19 -16 41 1 32 24 -8 20 -21 20 -36
2z"/>
<path d="M932 1657 c-14 -16 -5 -54 15 -61 19 -8 53 11 53 29 0 42 -43 62 -68
32z"/>
<path d="M561 1650 c-17 -10 -7 -40 13 -40 7 0 16 6 19 14 8 19 -15 37 -32 26z"/>
<path d="M1341 1651 c-17 -11 -7 -41 13 -41 21 0 27 15 13 33 -8 11 -17 14
-26 8z"/>
<path d="M742 1548 c-25 -25 -6 -68 30 -68 9 0 22 9 28 19 13 25 13 27 -6 45
-19 19 -36 20 -52 4z"/>
<path d="M1132 1548 c-20 -20 -14 -48 13 -60 31 -14 56 3 50 34 -7 35 -40 49
-63 26z"/>
<path d="M355 1531 c-9 -16 3 -31 26 -31 14 0 19 6 17 17 -4 20 -33 29 -43 14z"/>
<path d="M1530 1521 c0 -21 26 -36 36 -20 9 15 -3 39 -21 39 -8 0 -15 -9 -15
-19z"/>
<path d="M934 1452 c-6 -4 -16 -17 -23 -29 -15 -30 -98 -77 -131 -75 -25 2
-70 -29 -70 -48 0 -16 -92 -64 -128 -67 -19 -1 -40 -8 -48 -14 -35 -29 1 -101
47 -92 34 6 117 -42 125 -72 3 -14 12 -29 20 -36 18 -15 19 -107 0 -128 -26
-30 -27 -57 -5 -85 17 -21 28 -26 58 -25 42 3 121 -36 121 -60 0 -8 8 -23 17
-34 23 -24 27 -113 7 -144 -28 -44 -7 -93 40 -93 19 0 32 9 45 31 24 40 96 82
141 83 27 1 39 8 55 32 21 32 112 87 136 83 17 -4 59 10 60 19 0 4 2 17 5 29
2 12 -3 29 -11 37 -21 21 -20 126 2 164 16 28 16 31 0 55 -21 32 -23 138 -4
170 8 12 13 28 12 35 -2 6 -3 16 -4 21 -1 11 -36 24 -66 25 -28 1 -125 56
-125 71 0 22 -38 48 -61 42 -30 -8 -120 46 -141 84 -17 29 -49 38 -74 21z
m109 -122 c28 -14 55 -37 63 -52 13 -26 47 -43 70 -36 21 6 113 -53 132 -86
24 -40 26 -142 4 -169 -15 -17 -8 -77 9 -77 15 0 8 -112 -10 -148 -21 -44
-105 -96 -148 -93 -27 1 -36 -4 -52 -30 -11 -17 -42 -44 -70 -60 l-51 -29 0
65 c0 39 4 65 11 65 5 0 15 13 20 30 14 40 83 79 127 73 60 -10 96 54 55 99
-24 27 -25 117 -1 142 22 24 23 54 2 85 -13 19 -23 22 -53 18 -48 -6 -115 32
-130 74 -10 30 -45 50 -71 41 -25 -9 -50 -34 -50 -52 0 -26 -78 -64 -130 -64
-47 0 -144 40 -134 55 12 20 100 63 125 61 28 -2 59 20 59 41 0 20 108 74 143
72 18 0 54 -12 80 -25z m4 -228 c27 -14 45 -31 49 -47 3 -13 12 -29 20 -36 17
-14 20 -129 3 -129 -5 0 -15 -13 -20 -30 -7 -19 -27 -38 -56 -55 -25 -14 -47
-25 -49 -25 -2 0 -4 23 -4 51 0 39 5 55 20 67 11 10 23 31 26 49 5 26 1 37
-19 57 -26 26 -74 35 -92 17 -10 -9 -95 34 -95 48 0 3 20 17 44 31 56 31 115
32 173 2z m-161 -154 c-2 -10 0 -18 5 -18 5 0 9 -6 9 -13 0 -7 9 -18 19 -24
14 -9 19 -23 17 -57 0 -26 -5 -46 -11 -46 -23 0 -95 46 -95 61 0 8 -8 24 -18
35 -16 17 -21 62 -14 121 1 8 18 3 47 -15 33 -19 45 -32 41 -44z"/>
<path d="M559 1443 c-21 -5 -32 -43 -17 -60 15 -18 55 -16 62 3 15 38 -8 65
-45 57z"/>
<path d="M1338 1443 c-43 -10 -25 -76 20 -71 21 2 28 9 30 30 3 29 -20 48 -50
41z"/>
<path d="M163 1414 c-7 -20 17 -37 34 -23 15 13 6 39 -13 39 -8 0 -17 -7 -21
-16z"/>
<path d="M1724 1419 c-3 -6 0 -17 8 -25 13 -13 16 -13 27 0 7 8 10 20 6 26 -8
13 -32 13 -41 -1z"/>
<path d="M1526 1321 c-22 -25 -17 -51 11 -62 16 -6 27 -3 38 8 20 20 16 42
-11 59 -18 13 -23 12 -38 -5z"/>
<path d="M347 1323 c-15 -14 -6 -53 14 -63 16 -9 24 -8 39 5 19 17 20 31 7 53
-9 13 -49 17 -60 5z"/>
<path d="M160 1180 c0 -21 8 -24 34 -14 20 8 9 34 -15 34 -12 0 -19 -7 -19
-20z"/>
<path d="M1722 1183 c4 -22 43 -25 43 -3 0 8 -11 16 -23 18 -19 3 -23 0 -20
-15z"/>
<path d="M358 1099 c-29 -16 -23 -57 9 -65 43 -11 66 43 29 68 -14 10 -17 9
-38 -3z"/>
<path d="M1528 1099 c-33 -18 -16 -69 23 -69 29 0 44 27 31 55 -12 27 -27 30
-54 14z"/>
<path d="M538 996 c-21 -16 -23 -59 -4 -78 17 -18 16 -132 -1 -150 -18 -17
-16 -63 2 -78 9 -7 28 -13 44 -12 27 1 144 -58 142 -71 -3 -22 2 -28 25 -38
20 -7 32 -6 50 6 46 30 20 99 -35 94 -36 -4 -130 50 -137 79 -4 12 -10 22 -15
22 -12 0 -12 133 0 146 20 21 21 51 2 72 -21 25 -48 28 -73 8z"/>
<path d="M163 964 c-9 -23 13 -40 32 -24 12 10 13 16 4 26 -15 18 -28 18 -36
-2z"/>
<path d="M1733 973 c-17 -6 -16 -30 1 -36 18 -7 36 11 29 29 -5 15 -10 16 -30
7z"/>
<path d="M354 872 c-18 -12 -23 -40 -9 -52 23 -19 49 -18 63 1 24 35 -18 76
-54 51z"/>
<path d="M1516 864 c-11 -28 -7 -43 14 -54 38 -20 75 25 48 57 -15 18 -55 16
-62 -3z"/>
<path d="M160 730 c0 -13 7 -20 18 -20 24 0 32 8 25 26 -8 22 -43 17 -43 -6z"/>
<path d="M1724 739 c-9 -15 11 -33 30 -26 9 4 13 13 10 22 -7 17 -30 20 -40 4z"/>
<path d="M350 640 c-26 -26 -12 -60 25 -60 33 0 49 30 29 58 -19 27 -29 27
-54 2z"/>
<path d="M1526 648 c-21 -12 -20 -41 3 -62 17 -15 20 -15 41 2 40 32 1 85 -44
60z"/>
<path d="M539 519 c-10 -20 -9 -25 11 -41 30 -24 63 -8 58 30 -4 37 -51 44
-69 11z"/>
<path d="M1318 523 c-7 -29 2 -51 22 -56 28 -7 52 15 48 44 -2 19 -10 25 -34
27 -24 2 -32 -1 -36 -15z"/>
<path d="M171 520 c-14 -8 -8 -40 7 -40 5 0 15 6 21 14 15 17 -8 39 -28 26z"/>
<path d="M1732 521 c-15 -9 -5 -41 13 -41 8 0 17 5 21 11 9 15 -18 40 -34 30z"/>
<path d="M740 415 c-17 -21 -4 -65 19 -65 18 0 51 24 51 36 0 3 -5 14 -10 25
-13 23 -43 25 -60 4z"/>
<path d="M1132 418 c-28 -28 -1 -75 37 -63 25 8 34 31 21 56 -12 21 -40 25
-58 7z"/>
<path d="M367 405 c-18 -18 -14 -35 8 -35 20 0 28 17 17 36 -8 14 -10 14 -25
-1z"/>
<path d="M1526 395 c-6 -17 17 -31 34 -20 5 3 10 13 10 21 0 19 -36 18 -44 -1z"/>
<path d="M936 304 c-19 -18 -19 -20 -6 -45 16 -29 58 -25 66 6 11 45 -29 71
-60 39z"/>
<path d="M553 284 c-7 -20 17 -37 34 -23 15 13 6 39 -13 39 -8 0 -17 -7 -21
-16z"/>
<path d="M1333 284 c-7 -20 17 -37 34 -23 15 13 6 39 -13 39 -8 0 -17 -7 -21
-16z"/>
<path d="M754 184 c-18 -7 -5 -42 14 -40 10 2 17 11 17 21 0 19 -12 26 -31 19z"/>
<path d="M1141 176 c-9 -10 -8 -16 4 -26 19 -16 41 1 32 24 -8 20 -21 20 -36
2z"/>
<path d="M951 70 c-17 -10 -7 -40 13 -40 7 0 16 6 19 14 8 19 -15 37 -32 26z"/>
</g>
</svg>
